# xmcd
#
# Track frame offsets: 
#        150
#        10839
#        29387
#        44873
#        59781
#        76325
#        89939
#        106692
#        125076
#        139769
#        153596
#        176855
#        190667
#        208038
#        219553
#
# Disc length: 3235 seconds
#
# Revision: 0
# Processed by: cddbd v1.5.2PL0 Copyright (c) Steve Scherf et al.
# Submitted via: ExactAudioCopyFreeDBPlugin 1.0
#
DISCID=e40ca10f
DTITLE=Mikey Jr. - The Acoustic Sessions
DYEAR=2013
DGENRE=Blues
TTITLE0=I Can't Hold Out
TTITLE1=Malted Milk
TTITLE2=Rollin In My Sweet Baby's Arms
TTITLE3=Last Fair Deal Gone Down
TTITLE4=She's Good At Being Bad
TTITLE5=Wrong Number Blues
TTITLE6=Buckeye Swing
TTITLE7=Hard Time Killin Floor
TTITLE8=Shake That Boogie
TTITLE9=Red Hot Kisses
TTITLE10=She Moves Me
TTITLE11=Come Back Home Baby
TTITLE12=Where Did You Sleep Last Night
TTITLE13=Too Close Together
TTITLE14=Blues After Hours
EXTD=
EXTT0=
EXTT1=
EXTT2=
EXTT3=
EXTT4=
EXTT5=
EXTT6=
EXTT7=
EXTT8=
EXTT9=
EXTT10=
EXTT11=
EXTT12=
EXTT13=
EXTT14=
PLAYORDER=
